<svg xmlns="http://www.w3.org/2000/svg" viewBox="0 0 32 32" width="32" height="32">
  <!-- Background circle -->
  <circle cx="16" cy="16" r="16" fill="#1a56db"/>
  <!-- Flame shape -->
  <path d="M16 4
    C16 4 20 9 19 13
    C21 11 22 8 22 8
    C24 12 23 16 21 18
    C23 17 24 15 24 15
    C24 19 22 22 19 24
    C17 25 15 25 13 24
    C10 22 9 19 9 16
    C9 13 11 11 13 10
    C12 13 13 15 15 15
    C14 12 14 8 16 4Z"
    fill="#f97316"/>
  <!-- Inner flame highlight -->
  <path d="M16 10
    C16 10 18 13 17.5 15.5
    C18.5 14 19 12 19 12
    C20 14.5 19 17 17.5 18.5
    C16.5 19.5 15 19.5 13.5 18.5
    C12 17 12 15 13 13.5
    C13 15 14 16 15 16
    C14.5 14 14.5 11.5 16 10Z"
    fill="#fef08a"/>
</svg>
